:FULLY-SPECIFIED
:FORCE-ALL-JOINTS-BE-3DOF
:DEGREES
421
root 10.1086 16.9997 23.1549 7.64684 -2.72114 -4.05869
lfemur -40.3904 0.201438 -16.8329
ltibia 25.7935 0 0
lfoot -9.36509 10.3267 0
ltoes -3.1041 0 0
rfemur 10.4198 2.54703 26.2372
rtibia 26.7342 0 0
rfoot 9.87449 3.13924 0
rtoes -13.8071 0 0
lowerback -6.84075 3.43616 0.906401
upperback -2.28857 4.35636 2.36322
thorax 1.32491 2.21832 2.29305
lowerneck -17.6953 -5.97437 -14.5574
upperneck 21.7694 -7.66042 13.5824
head 11.0661 -3.17642 6.2847
lclavicle 1.80516e-14 -1.17052e-14 0
lhumerus -49.9897 -4.1985 92.0514
lradius 22.172 0 0
lwrist -0.282984 0 0
lhand -9.98573 -24.7211 0
lfingers 7.12502 0 0
lthumb 15.9977 4.64379 0
rclavicle 1.80516e-14 -1.17052e-14 0
rhumerus -36.4226 11.5724 -88.1192
rradius 32.7691 0 0
rwrist -14.4588 0 0
rhand -27.5517 -24.954 0
rfingers 7.12502 0 0
rthumb -0.953233 -54.9423 0
422
root 10.1368 17.0104 23.319 7.71548 -2.74103 -3.75379
lfemur -40.0835 0.541902 -17.5022
ltibia 26.4184 0 0
lfoot -8.90162 10.0758 0
ltoes -2.35915 0 0
rfemur 9.58332 2.3106 25.693
rtibia 28.899 0 0
rfoot 10.9542 2.81757 0
rtoes -14.0893 0 0
lowerback -6.72179 3.41057 0.699677
upperback -2.47161 4.3478 2.22796
thorax 1.0644 2.21561 2.25363
lowerneck -17.5966 -5.95862 -14.6213
upperneck 21.8164 -7.6429 13.6057
head 11.0644 -3.17486 6.31025
lclavicle 1.81894e-14 -1.02575e-14 0
lhumerus -49.626 -3.94363 91.7493
lradius 21.8452 0 0
lwrist -0.837893 0 0
lhand -10.0041 -24.5792 0
lfingers 7.12502 0 0
lthumb 15.98 4.78705 0
rclavicle 1.81894e-14 -1.02575e-14 0
rhumerus -37.1484 11.3551 -88.3393
rradius 32.3525 0 0
rwrist -14.2741 0 0
rhand -27.3913 -25.2339 0
rfingers 7.12502 0 0
rthumb -0.798349 -55.2242 0
423
root 10.1649 17.0212 23.4824 7.78051 -2.75451 -3.44899
lfemur -39.7608 0.880447 -18.169
ltibia 27.0415 0 0
lfoot -8.45246 9.82475 0
ltoes -1.62264 0 0
rfemur 8.72548 2.07733 25.1519
rtibia 31.0482 0 0
rfoot 11.9894 2.49268 0
rtoes -14.3677 0 0
lowerback -6.60314 3.37981 0.493057
upperback -2.65008 4.33224 2.09458
thorax 0.809281 2.2093 2.21577
lowerneck -17.5031 -5.94106 -14.6803
upperneck 21.8648 -7.62285 13.6256
head 11.0636 -3.17198 6.33409
lclavicle 1.83149e-14 -8.8079e-15 0
lhumerus -49.2439 -3.70597 91.4494
lradius 21.528 0 0
lwrist -1.37851 0 0
lhand -10.0264 -24.4385 0
lfingers 7.12502 0 0
lthumb 15.9585 4.92917 0
rclavicle 1.83149e-14 -8.8079e-15 0
rhumerus -37.868 11.1427 -88.5541
rradius 31.9497 0 0
rwrist -14.0977 0 0
rhand -27.2417 -25.5027 0
rfingers 7.12502 0 0
rthumb -0.653866 -55.4947 0
424
root 10.1927 17.0321 23.645 7.84129 -2.76137 -3.14593
lfemur -39.4223 1.2146 -18.8294
ltibia 27.6564 0 0
lfoot -8.02107 9.57458 0
ltoes -0.89927 0 0
rfemur 7.85022 1.84839 24.6167
rtibia 33.169 0 0
rfoot 12.9725 2.16576 0
rtoes -14.6406 0 0
lowerback -6.48554 3.34368 0.287653
upperback -2.8227 4.30925 1.96392
thorax 0.561366 2.19917 2.17978
lowerneck -17.4158 -5.92151 -14.7337
upperneck 21.9144 -7.60002 13.6417
head 11.0638 -3.16763 6.35598
lclavicle 1.84279e-14 -7.36556e-15 0
lhumerus -48.8434 -3.48745 91.153
lradius 21.2225 0 0
lwrist -1.90164 0 0
lhand -10.0524 -24.3004 0
lfingers 7.12502 0 0
lthumb 15.9334 5.06904 0
rclavicle 1.84279e-14 -7.36556e-15 0
rhumerus -38.5775 10.9362 -88.7622
rradius 31.563 0 0
rwrist -13.9306 0 0
rhand -27.1046 -25.758 0
rfingers 7.12502 0 0
rthumb -0.521447 -55.7514 0
425
root 10.2201 17.043 23.8066 7.89719 -2.76139 -2.84623
lfemur -39.0681 1.54189 -19.4797
ltibia 28.2569 0 0
lfoot -7.61092 9.32637 0
ltoes -0.193754 0 0
rfemur 6.96149 1.62497 24.0901
rtibia 35.2484 0 0
rfoot 13.8956 1.83803 0
rtoes -14.9061 0 0
lowerback -6.36973 3.302 0.0845795
upperback -2.98816 4.27844 1.83684
thorax 0.322484 2.185 2.146
lowerneck -17.3357 -5.89981 -14.7808
upperneck 21.9654 -7.57413 13.6535
head 11.0652 -3.16164 6.37568
lclavicle 1.85282e-14 -5.9398e-15 0
lhumerus -48.4242 -3.29004 90.8613
lradius 20.9309 0 0
lwrist -2.40407 0 0
lhand -10.0821 -24.1659 0
lfingers 7.12502 0 0
lthumb 15.9048 5.20554 0
rclavicle 1.85282e-14 -5.9398e-15 0
rhumerus -39.2729 10.7364 -88.9622
rradius 31.1952 0 0
rwrist -13.7738 0 0
rhand -26.9817 -25.9971 0
rfingers 7.12502 0 0
rthumb -0.40275 -55.9916 0
426
root 10.2472 17.0538 23.9669 7.94759 -2.75437 -2.55151
lfemur -38.6983 1.85985 -20.1163
ltibia 28.8365 0 0
lfoot -7.22547 9.0812 0
ltoes 0.489199 0 0
rfemur 6.06321 1.40825 23.5749
rtibia 37.2738 0 0
rfoot 14.7511 1.51068 0
rtoes -15.1621 0 0
lowerback -6.25646 3.25459 -0.115049
upperback -3.14517 4.23939 1.7142
thorax 0.0944595 2.16658 2.11476
lowerneck -17.2635 -5.87578 -14.821
upperneck 22.0175 -7.54491 13.6607
head 11.0677 -3.15385 6.39295
lclavicle 1.86156e-14 -4.53988e-15 0
lhumerus -47.9863 -3.11567 90.5755
lradius 20.6554 0 0
lwrist -2.88261 0 0
lhand -10.1153 -24.0361 0
lfingers 7.12502 0 0
lthumb 15.8728 5.33753 0
rclavicle 1.86156e-14 -4.53988e-15 0
rhumerus -39.9502 10.5445 -89.153
rradius 30.8487 0 0
rwrist -13.6285 0 0
rhand -26.8747 -26.2174 0
rfingers 7.12502 0 0
rthumb -0.299437 -56.2126 0
427
root 10.2738 17.0645 24.126 7.99185 -2.7401 -2.26339
lfemur -38.3129 2.166 -20.7352
ltibia 29.389 0 0
lfoot -6.86818 8.84013 0
ltoes 1.14488 0 0
rfemur 5.15931 1.19941 23.074
rtibia 39.2322 0 0
rfoot 15.5311 1.18493 0
rtoes -15.407 0 0
lowerback -6.14645 3.20124 -0.31012
upperback -3.29242 4.1917 1.59684
thorax -0.120882 2.14368 2.08638
lowerneck -17.2002 -5.84925 -14.8535
upperneck 22.0709 -7.51211 13.6629
head 11.0716 -3.1441 6.40753
lclavicle 1.86899e-14 -3.17507e-15 0
lhumerus -47.5295 -2.96631 90.2968
lradius 20.3982 0 0
lwrist -3.33405 0 0
lhand -10.152 -23.9122 0
lfingers 7.12502 0 0
lthumb 15.8375 5.46391 0
rclavicle 1.86899e-14 -3.17507e-15 0
rhumerus -40.6053 10.3613 -89.3331
rradius 30.526 0 0
rwrist -13.4955 0 0
rhand -26.7854 -26.4163 0
rfingers 7.12502 0 0
rthumb -0.213168 -56.4118 0
428
root 10.2998 17.0751 24.2835 8.02934 -2.71836 -1.9835
lfemur -37.9121 2.45788 -21.3329
ltibia 29.9079 0 0
lfoot -6.54253 8.60422 0
ltoes 1.76858 0 0
rfemur 4.25372 0.999643 22.59
rtibia 41.1107 0 0
rfoot 16.2279 0.86196 0
rtoes -15.6387 0 0
lowerback -6.04046 3.14176 -0.499518
upperback -3.42863 4.13495 1.48564
thorax -0.321715 2.11608 2.06121
lowerneck -17.1468 -5.82005 -14.8776
upperneck 22.1253 -7.47546 13.6595
head 11.0769 -3.13225 6.41919
lclavicle 1.87508e-14 -1.85464e-15 0
lhumerus -47.0538 -2.84391 90.0264
lradius 20.1613 0 0
lwrist -3.75519 0 0
lhand -10.192 -23.7952 0
lfingers 7.12502 0 0
lthumb 15.799 5.58354 0
rclavicle 1.87508e-14 -1.85464e-15 0
rhumerus -41.2344 10.1879 -89.5014
rradius 30.2298 0 0
rwrist -13.3758 0 0
rhand -26.7155 -26.5912 0
rfingers 7.12502 0 0
rthumb -0.145603 -56.5866 0
429
root 10.3251 17.0855 24.4392 8.05943 -2.68893 -1.71346
lfemur -37.4958 2.73301 -21.9055
ltibia 30.3869 0 0
lfoot -6.25198 8.37456 0
ltoes 2.35558 0 0
rfemur 3.35038 0.81012 22.1258
rtibia 42.8966 0 0
rfoot 16.8338 0.542988 0
rtoes -15.8554 0 0
lowerback -5.93921 3.07598 -0.682131
upperback -3.5525 4.06874 1.38143
thorax -0.506215 2.08357 2.03957
lowerneck -17.104 -5.78801 -14.8927
upperneck 22.1809 -7.43469 13.6503
head 11.0836 -3.11811 6.42769
lclavicle 1.87981e-14 -5.87862e-16 0
lhumerus -46.5591 -2.75041 89.7654
lradius 19.947 0 0
lwrist -4.14282 0 0
lhand -10.2352 -23.6863 0
lfingers 7.12502 0 0
lthumb 15.7573 5.69531 0
rclavicle 1.87981e-14 -5.87862e-16 0
rhumerus -41.8334 10.0252 -89.6563
rradius 29.9625 0 0
rwrist -13.2706 0 0
rhand -26.6666 -26.7395 0
rfingers 7.12502 0 0
rthumb -0.0984037 -56.7343 0
430
root 10.3497 17.0957 24.5931 8.08149 -2.65162 -1.45489
lfemur -37.0643 2.98893 -22.4492
ltibia 30.8197 0 0
lfoot -5.99999 8.15222 0
ltoes 2.90119 0 0
rfemur 2.45322 0.632028 21.6841
rtibia 44.5769 0 0
rfoot 17.341 0.229214 0
rtoes -16.0552 0 0
lowerback -5.84345 3.00369 -0.856843
upperback -3.66272 3.99266 1.28508
thorax -0.672558 2.04594 2.02179
lowerneck -17.0728 -5.75296 -14.898
upperneck 22.2376 -7.38953 13.6347
head 11.0919 -3.10155 6.43277
lclavicle 1.88317e-14 6.16002e-16 0
lhumerus -46.0452 -2.68776 89.5152
lradius 19.7574 0 0
lwrist -4.49375 0 0
lhand -10.2816 -23.5866 0
lfingers 7.12502 0 0
lthumb 15.7126 5.79809 0
rclavicle 1.88317e-14 6.16002e-16 0
rhumerus -42.3983 9.87419 -89.7967
rradius 29.7266 0 0
rwrist -13.1809 0 0
rhand -26.6406 -26.8586 0
rfingers 7.12502 0 0
rthumb -0.0732296 -56.8522 0
431
root 10.3735 17.1056 24.7449 8.09489 -2.6062 -1.20942
lfemur -36.6176 3.22315 -22.9605
ltibia 31.1999 0 0
lfoot -5.79003 7.93825 0
ltoes 3.40068 0 0
rfemur 1.56616 0.466551 21.2677
rtibia 46.1389 0 0
rfoot 17.7418 -0.0781605 0
rtoes -16.2363 0 0
lowerback -5.75392 2.92471 -1.02254
upperback -3.758 3.90629 1.19744
thorax -0.818917 2.00295 2.00819
lowerneck -17.0541 -5.71473 -14.8928
upperneck 22.2953 -7.33972 13.6124
head 11.102 -3.08239 6.4342
lclavicle 1.88513e-14 1.74768e-15 0
lhumerus -45.5121 -2.65793 89.2768
lradius 19.5946 0 0
lwrist -4.80478 0 0
lhand -10.331 -23.4972 0
lfingers 7.12502 0 0
lthumb 15.665 5.89076 0
rclavicle 1.88513e-14 1.74768e-15 0
rhumerus -42.9251 9.73585 -89.9212
rradius 29.5248 0 0
rwrist -13.1075 0 0
rhand -26.6391 -26.9458 0
rfingers 7.12502 0 0
rthumb -0.0717415 -56.9379 0
432
root 10.3964 17.1151 24.8945 8.099 -2.55247 -0.978675
lfemur -36.1556 3.43321 -23.4354
ltibia 31.5211 0 0
lfoot -5.62556 7.73373 0
ltoes 3.84936 0 0
rfemur 0.693149 0.314869 20.8793
rtibia 47.5696 0 0
rfoot 18.0283 -0.377932 0
rtoes -16.3966 0 0
lowerback -5.67136 2.83884 -1.17811
upperback -3.83705 3.80924 1.11937
thorax -0.943468 1.95439 1.99912
lowerneck -17.0488 -5.67315 -14.8766
upperneck 22.3539 -7.285 13.583
head 11.1137 -3.06048 6.43174
lclavicle 1.88566e-14 2.79791e-15 0
lhumerus -44.9595 -2.66285 89.0516
lradius 19.4609 0 0
lwrist -5.07269 0 0
lhand -10.3833 -23.4192 0
lfingers 7.12502 0 0
lthumb 15.6146 5.9722 0
rclavicle 1.88566e-14 2.79791e-15 0
rhumerus -43.4099 9.61114 -90.0285
rradius 29.3595 0 0
rwrist -13.0517 0 0
rhand -26.6638 -26.9987 0
rfingers 7.12502 0 0
rthumb -0.0955999 -56.9885 0
433
root 10.4184 17.1243 25.0416 8.09318 -2.4902 -0.764273
lfemur -35.6787 3.61664 -23.8703
ltibia 31.777 0 0
lfoot -5.51005 7.53974 0
ltoes 4.2425 0 0
rfemur -0.161895 0.178166 20.5219
rtibia 48.8562 0 0
rfoot 18.1929 -0.668898 0
rtoes -16.5345 0 0
lowerback -5.59651 2.7459 -1.32245
upperback -3.89857 3.70108 1.05172
thorax -1.04439 1.90004 1.9949
lowerneck -17.0578 -5.62805 -14.8484
upperneck 22.4135 -7.2251 13.5459
head 11.1274 -3.03567 6.42513
lclavicle 1.88475e-14 3.75741e-15 0
lhumerus -44.3875 -2.70449 88.8407
lradius 19.3584 0 0
lwrist -5.29429 0 0
lhand -10.4385 -23.3537 0
lfingers 7.12502 0 0
lthumb 15.5614 6.04128 0
rclavicle 1.88475e-14 3.75741e-15 0
rhumerus -43.8486 9.50105 -90.1173
rradius 29.2332 0 0
rwrist -13.0143 0 0
rhand -26.7166 -27.0145 0
rfingers 7.12502 0 0
rthumb -0.146465 -57.0015 0
